<svg xmlns="http://www.w3.org/2000/svg" viewBox="0 0 572.04 329.14"><defs><style>.cls-1,.cls-2{fill:none;stroke-width:10px;}.cls-1,.cls-2,.cls-3{stroke:#231f20;}.cls-1{stroke-linecap:round;stroke-linejoin:round;}.cls-2,.cls-3,.cls-4,.cls-5{stroke-miterlimit:10;}.cls-3{fill:#005fa8;}.cls-3,.cls-4,.cls-5{stroke-width:7px;}.cls-4{fill:#231f20;}.cls-4,.cls-5{stroke:#fff;}.cls-5{fill:#fff;}</style></defs><title>Asset 3bonny</title><g id="Layer_2" data-name="Layer 2"><g id="Layer_1-2" data-name="Layer 1"><path class="cls-1" d="M370.44,131.67C352.2,107.57,348,89.12,332.52,78.39c-9.67-6.7-26.82-8.27-38.47-7.33a88.85,88.85,0,0,1-14.59,0c-11.65-.94-28.8.63-38.46,7.33-15.48,10.73-19.68,29.18-37.92,53.28-50.81,67.12-83.51,164.55,69.46,191.24a82.76,82.76,0,0,0,28.43,0C453.94,296.22,421.24,198.79,370.44,131.67Z"/><path class="cls-2" d="M286.81,266.17c.65,0,1,.55,1.31,1.12,4.64,8.21,9.75,7.16,18.54,7.43s2.46,21.57-9.6,32.67a15.81,15.81,0,0,1-10.74,4.06h-.11a13.31,13.31,0,0,1-7.94-2.57c-13.37-9.95-20.62-34.66-11.39-34.16,8.19.45,15.87.21,18.54-7.43a1.45,1.45,0,0,1,1.31-1.12Z"/><path class="cls-2" d="M283.81,250.33a6.23,6.23,0,0,0,5.9,0c16.62-9,21.57-16.37,19.74-20-1.44-2.79-4.7-8.07-22.69-7.74-17.2-.33-21.26,5-22.69,7.74C262.23,234,267.18,241.31,283.81,250.33Z"/><path class="cls-3" d="M388.56,189.72c-.77,24.76-21.56,45.22-44.34,44.34-24.31-.94-44.34-20-44.34-44.34a44.54,44.54,0,0,1,44.34-44.34C368.54,145.38,389.31,165.41,388.56,189.72Z"/><ellipse class="cls-4" cx="344.23" cy="189.72" rx="31.4" ry="32.9"/><circle class="cls-5" cx="354.56" cy="176.75" r="9.32"/><circle class="cls-5" cx="336.07" cy="209.2" r="4.08"/><path class="cls-3" d="M272.29,189.71c-.77,24.76-21.55,45.21-44.34,44.34-24.3-.94-44.34-20-44.34-44.34A44.55,44.55,0,0,1,228,145.37C252.28,145.37,273.05,165.39,272.29,189.71Z"/><ellipse class="cls-4" cx="227.96" cy="189.71" rx="31.4" ry="32.9"/><circle class="cls-5" cx="238.29" cy="176.74" r="9.32"/><circle class="cls-5" cx="219.8" cy="209.19" r="4.08"/><path class="cls-1" d="M186.5,89.82l14.82,13.05a11.88,11.88,0,0,0,16.52-.79l20-21.38a11.89,11.89,0,0,0,.58-15.59c-18-22.26-53.21-68.09-79-58.74C109.83,24.4-7.3,131,6.05,186.69c2.38,9.9,31,49.17,61.52,43.06C112,220.85,206.25,54.06,206.25,54.06"/><path class="cls-1" d="M385.76,89.64l-14.85,13a11.9,11.9,0,0,1-16.52-.84l-20-21.43a11.87,11.87,0,0,1-.54-15.59c18.05-22.21,53.38-68,79.12-58.54,49.61,18.15,166.47,125,153,180.7-2.4,9.89-31.12,49.09-61.63,42.9-44.42-9-138.24-176-138.24-176Z"/></g></g></svg>