<?xml version="1.0" encoding="UTF-8" standalone="no"?>
<!-- Created with Inkscape (http://www.inkscape.org/) -->

<svg
   xmlns:dc="http://purl.org/dc/elements/1.1/"
   xmlns:cc="http://creativecommons.org/ns#"
   xmlns:rdf="http://www.w3.org/1999/02/22-rdf-syntax-ns#"
   xmlns:svg="http://www.w3.org/2000/svg"
   xmlns="http://www.w3.org/2000/svg"
   xmlns:sodipodi="http://sodipodi.sourceforge.net/DTD/sodipodi-0.dtd"
   xmlns:inkscape="http://www.inkscape.org/namespaces/inkscape"
   width="210mm"
   height="297mm"
   viewBox="0 0 210 297"
   version="1.1"
   id="svg5060"
   sodipodi:docname="ico_conejo.svg"
   inkscape:version="0.92.4 (5da689c313, 2019-01-14)">
  <defs
     id="defs5054" />
  <sodipodi:namedview
     id="base"
     pagecolor="#ffffff"
     bordercolor="#666666"
     borderopacity="1.0"
     inkscape:pageopacity="0.0"
     inkscape:pageshadow="2"
     inkscape:zoom="0.5"
     inkscape:cx="150.40158"
     inkscape:cy="540.71333"
     inkscape:document-units="mm"
     inkscape:current-layer="layer1"
     showgrid="false"
     inkscape:window-width="1366"
     inkscape:window-height="745"
     inkscape:window-x="-8"
     inkscape:window-y="-8"
     inkscape:window-maximized="1"
     inkscape:snap-global="false" />
  <metadata
     id="metadata5057">
    <rdf:RDF>
      <cc:Work
         rdf:about="">
        <dc:format>image/svg+xml</dc:format>
        <dc:type
           rdf:resource="http://purl.org/dc/dcmitype/StillImage" />
      </cc:Work>
    </rdf:RDF>
  </metadata>
  <g
     inkscape:label="Layer 1"
     inkscape:groupmode="layer"
     id="layer1">
    <g
       id="g5831"
       transform="translate(5.2916667,-38.1)">
      <path
         sodipodi:nodetypes="csssc"
         inkscape:connector-curvature="0"
         id="path5780"
         d="m 90.021421,190.52947 c 0,0 -7.634299,-3.22972 -10.387399,-1.44652 -2.7531,1.7832 -3.507153,4.86458 -1.742788,5.9258 6.717488,4.04036 11.729951,4.07296 15.964001,4.25614 2.562173,0.11085 3.188836,-7.26362 3.188836,-7.26362"
         style="fill:none;stroke:#000000;stroke-width:1;stroke-linecap:round;stroke-linejoin:round;stroke-miterlimit:4;stroke-dasharray:none;stroke-opacity:1" />
      <path
         sodipodi:nodetypes="cczcccczcc"
         inkscape:connector-curvature="0"
         id="path5633"
         d="m 79.512683,141.04823 c -3.323546,0.88142 -13.594815,4.10108 -19.777945,12.2944 0,0 1.686142,6.16798 3.212608,8.95487 1.526466,2.78689 6.940574,-1.67256 6.940574,-1.67256 0,0 -3.91717,12.00791 -2.737729,18.82579 9.566447,9.03893 46.196339,20.02391 59.845489,5.79203 4.08735,-6.97315 1.471,-23.11589 1.471,-23.11589 0,0 4.76203,0.2111 6.5783,-1.52432 1.81627,-1.73541 2.26904,-12.56422 2.26904,-12.56422 -0.33811,-2.29108 -10.02333,-5.18017 -16.1934,-6.41398"
         style="fill:#1a1a1a;stroke:#000000;stroke-width:1;stroke-linecap:round;stroke-linejoin:round;stroke-miterlimit:4;stroke-dasharray:none;stroke-opacity:1" />
      <path
         sodipodi:nodetypes="csssc"
         inkscape:connector-curvature="0"
         id="path5780-6"
         d="m 104.77672,192.72695 c 0,0 6.8776,-1.63664 9.77141,1.81128 1.32365,1.57706 1.9255,5.6795 -0.0726,6.17634 -7.60731,1.89157 -11.8255,0.30568 -15.926959,-0.76154 -2.481932,-0.64579 -0.824648,-7.74873 -0.824648,-7.74873"
         style="fill:none;stroke:#000000;stroke-width:1;stroke-linecap:round;stroke-linejoin:round;stroke-miterlimit:4;stroke-dasharray:none;stroke-opacity:1" />
      <path
         sodipodi:nodetypes="ccccccccc"
         inkscape:connector-curvature="0"
         id="path5770"
         d="m 120.67219,142.37121 3.27405,8.2319 -6.82874,6.26748 2.33862,7.38999 -20.633023,12.33877 -19.325209,-11.61865 3.233692,-6.60128 -7.899893,-6.1065 4.807895,-10.31875"
         style="fill:#000000;stroke:#1a1a1a;stroke-width:1;stroke-linecap:round;stroke-linejoin:round;stroke-miterlimit:4;stroke-dasharray:none;stroke-opacity:1" />
      <path
         sodipodi:nodetypes="ccccc"
         inkscape:connector-curvature="0"
         id="path5776"
         d="m 89.334839,149.38704 -8.512535,-4.77076 18.241145,28.99874 21.047471,-28.15684 -7.20291,3.55468"
         style="fill:#ffffff;stroke:#000000;stroke-width:1;stroke-linecap:round;stroke-linejoin:round;stroke-miterlimit:4;stroke-dasharray:none;stroke-opacity:1" />
      <path
         inkscape:connector-curvature="0"
         id="path4857"
         d="m 99.050894,142.40628 4.213426,0.0639 -1.73481,-1.77135 z"
         style="fill:#000000;stroke:#000000;stroke-width:1;stroke-linecap:round;stroke-linejoin:round;stroke-miterlimit:4;stroke-dasharray:none;stroke-opacity:1" />
      <g
         transform="rotate(-3.6836459,117.43441,129.80741)"
         id="g5801">
        <path
           id="path4925-1"
           style="fill:#ffffff;stroke:#000000;stroke-width:1;stroke-linecap:round;stroke-linejoin:miter;stroke-miterlimit:4;stroke-dasharray:none;stroke-opacity:1"
           d="m 115.27423,118.58619 c 0,0 -0.0344,-0.0588 -0.0328,-0.091 0.1256,-2.63078 2.0768,-5.16968 3.37839,-7.14264 2.02266,-3.06597 5.53354,-4.97275 7.49282,-8.07961 1.25046,-1.98285 1.81742,-4.324982 2.59252,-6.537351 1.32002,-3.767777 2.78927,-7.525795 3.49846,-11.454622 0.36613,-2.028261 1.35299,-4.357256 0.37545,-6.171721 -0.81342,-1.509805 -2.74711,-2.491221 -4.46053,-2.564003 -2.91612,-0.123867 -5.6183,1.927736 -7.93416,3.704238 -2.97588,2.282796 -5.14559,5.501916 -7.23892,8.613987 -2.01316,2.992882 -3.10625,6.531605 -5.04845,9.571008 -1.0092,1.579354 -1.542,4.667124 -3.87754,5.253684 -1.37096,0.34431 -2.57362,0.88487 -3.81511,0.88288 -1.241495,-0.002 -1.789904,-0.33865 -3.52116,-0.8377 -1.731256,-0.49904 -2.879728,-3.807164 -3.856623,-5.406713 -1.879962,-3.078279 -2.900881,-6.638504 -4.852722,-9.671712 -2.0296,-3.154007 -4.133389,-6.416587 -7.062224,-8.759443 -2.279245,-1.823239 -4.93913,-3.929378 -7.857161,-3.864846 -1.714569,0.03791 -3.667818,0.979797 -4.511768,2.472743 -1.014262,1.794208 -0.07496,4.142793 0.249825,6.178082 0.629153,3.942437 2.021673,7.729564 3.264781,11.523408 0.729951,2.227678 1.249153,4.580851 2.459,6.588731 1.895708,3.14607 5.367057,5.12386 7.326937,8.23034 2.126488,1.78855 3.27546,8.34279 3.27546,8.34279 -0.790095,2.90593 -5.047967,4.40452 -6.173896,7.64318 -1.225688,3.52571 -1.003287,7.73994 -0.02482,11.19803 0.674735,2.82663 4.10369,5.97063 5.129017,6.86587 1.248108,1.15107 5.17554,2.31792 7.701157,2.42481 3.48788,0.41109 8.859537,-1.61081 8.859537,-1.61081 0,0 5.41779,1.90563 8.89504,1.41274 2.52244,-0.16618 6.42139,-1.42494 7.64212,-2.60502 1.00403,-0.91907 4.35817,-4.14274 4.96632,-6.98443 0.897,-3.48012 1.02034,-7.69841 -0.28783,-11.19436 -1.20167,-3.21133 -5.05697,-4.89698 -6.55108,-7.93055"
           inkscape:connector-curvature="0"
           sodipodi:nodetypes="csssscsssssszzcccssccscccccssssssc" />
        <path
           id="path4839-9"
           style="fill:none;stroke:#000000;stroke-width:1;stroke-linecap:round;stroke-linejoin:round;stroke-miterlimit:4;stroke-dasharray:none;stroke-opacity:1"
           d="m 115.34513,132.38097 c 0,0 0.95183,10.06373 -3.70936,12.06255 -2.0077,0.66535 -9.4126,-3.21653 -9.68791,-3.94034 -0.46332,-0.86895 -0.6966,-4.8019 -0.42889,-5.35599 0.62112,-1.28557 4.88465,-3.25833 4.88465,-3.25833 m -18.792271,-0.17455 c 0,0 -1.372929,10.01496 3.200359,12.20745 1.978039,0.74894 9.539172,-2.81906 9.844592,-3.53069 0.49935,-0.84876 0.89732,-4.76847 0.65307,-5.3333 -0.56667,-1.31048 -4.743737,-3.46026 -4.743737,-3.46026"
           inkscape:connector-curvature="0"
           sodipodi:nodetypes="cccccccccc" />
        <path
           d="m 104.58637,108.54488 a 0.91205722,2.3152223 0 0 1 -0.9074,2.3152 0.91205722,2.3152223 0 0 1 -0.91666,-2.29156 0.91205722,2.3152223 0 0 1 0.89804,-2.33859 0.91205722,2.3152223 0 0 1 0.92583,2.26768"
           sodipodi:open="true"
           sodipodi:end="6.262765"
           sodipodi:start="0"
           sodipodi:ry="2.3152223"
           sodipodi:rx="0.91205722"
           sodipodi:cy="108.54488"
           sodipodi:cx="103.67432"
           sodipodi:type="arc"
           id="path4861"
           style="opacity:1;fill:#ff0000;fill-opacity:1;fill-rule:evenodd;stroke:#ffffff;stroke-width:1;stroke-linecap:round;stroke-linejoin:round;stroke-miterlimit:4;stroke-dasharray:none;stroke-dashoffset:0;stroke-opacity:1;paint-order:stroke fill markers"
           transform="rotate(6.8350722)" />
        <path
           style="opacity:1;fill:#ff0000;fill-opacity:1;fill-rule:evenodd;stroke:#ffffff;stroke-width:1;stroke-linecap:round;stroke-linejoin:round;stroke-miterlimit:4;stroke-dasharray:none;stroke-dashoffset:0;stroke-opacity:1;paint-order:stroke fill markers"
           id="path4861-4"
           sodipodi:type="arc"
           sodipodi:cx="-85.619377"
           sodipodi:cy="138.42401"
           sodipodi:rx="0.91205722"
           sodipodi:ry="2.3152223"
           sodipodi:start="0"
           sodipodi:end="6.262765"
           sodipodi:open="true"
           d="m -84.70732,138.42401 a 0.91205722,2.3152223 0 0 1 -0.907401,2.31519 0.91205722,2.3152223 0 0 1 -0.916666,-2.29155 0.91205722,2.3152223 0 0 1 0.898042,-2.33859 0.91205722,2.3152223 0 0 1 0.925835,2.26768"
           transform="matrix(-0.98231001,0.18726194,0.18726194,0.98231001,0,0)" />
      </g>
      <rect
         y="147.8586"
         x="97.090668"
         height="5.3487282"
         width="7.476862"
         id="rect5809"
         style="opacity:1;fill:#808080;fill-opacity:1;fill-rule:evenodd;stroke:#808080;stroke-width:0.9365263;stroke-linecap:round;stroke-linejoin:round;stroke-miterlimit:4;stroke-dasharray:none;stroke-dashoffset:0;stroke-opacity:1;paint-order:stroke fill markers" />
      <path
         sodipodi:nodetypes="cssc"
         inkscape:connector-curvature="0"
         id="path5652"
         d="m 137.37654,149.26677 c 0,0 6.82092,-1.03433 8.55262,1.26953 1.99858,2.65892 1.36005,7.94125 -1.33635,9.88897 -2.35129,1.69843 -8.55262,-1.60362 -8.55262,-1.60362"
         style="fill:none;stroke:#000000;stroke-width:1;stroke-linecap:round;stroke-linejoin:round;stroke-miterlimit:4;stroke-dasharray:none;stroke-opacity:1" />
      <path
         sodipodi:nodetypes="cssc"
         inkscape:connector-curvature="0"
         id="path5654"
         d="m 59.601105,154.54534 c 0,0 -6.229471,2.08702 -6.949009,4.81085 -0.681855,2.58118 0.916888,6.45075 3.474503,7.21628 2.488323,0.74479 6.68174,-4.00905 6.68174,-4.00905"
         style="fill:none;stroke:#000000;stroke-width:1;stroke-linecap:round;stroke-linejoin:round;stroke-miterlimit:4;stroke-dasharray:none;stroke-opacity:1" />
      <path
         sodipodi:nodetypes="ccccc"
         inkscape:connector-curvature="0"
         id="path5673"
         d="m 143.29154,148.70049 c 3.56363,-17.63978 7.12715,-35.27959 10.69079,-52.919366 m 0.61471,-23.212359 c 18.57427,-15.5979 22.69024,17.442 -0.61407,23.214987 -21.36711,-9.53216 -14.88185,-36.290735 0.61407,-23.214987 z"
         style="fill:#ff0000;stroke:#000000;stroke-width:1;stroke-linecap:round;stroke-linejoin:round;stroke-miterlimit:4;stroke-dasharray:none;stroke-opacity:1" />
      <path
         inkscape:connector-curvature="0"
         id="path5675"
         d="m 154.00905,95.96153 1.63703,2.525697"
         style="fill:none;stroke:#000000;stroke-width:1;stroke-linecap:round;stroke-linejoin:round;stroke-miterlimit:4;stroke-dasharray:none;stroke-opacity:1" />
      <path
         inkscape:connector-curvature="0"
         id="path5677"
         d="m 140.87776,161.17362 -1.02898,4.30304"
         style="fill:none;stroke:#000000;stroke-width:1;stroke-linecap:round;stroke-linejoin:round;stroke-miterlimit:4;stroke-dasharray:none;stroke-opacity:1" />
      <path
         inkscape:connector-curvature="0"
         d="m 105.09955,147.83586 c 0.75916,1.2481 -1.13974,2.84637 -1.13974,2.84637 0,0 1.69459,1.70854 1.09725,2.90949 0.52564,0.28744 6.52697,3.59935 7.8302,2.17774 1.49304,-1.36266 -2.33021,-5.86016 -2.33021,-5.86016 0,0 4.28098,-4.1285 2.53877,-5.15433 -1.84886,-1.08861 -7.99934,3.08026 -7.99934,3.08026 -0.88203,-1.17682 -4.02212,-0.17487 -4.02212,-0.17487 0,0 -3.376088,-1.13179 -4.161869,-0.12932 0,0 -5.967709,-4.50178 -7.903156,-3.57582 -1.823799,0.87257 2.08717,5.35315 2.08717,5.35315 0,0 -4.195033,4.15288 -2.824409,5.63861 1.176452,1.52819 7.820189,-1.53817 8.41691,-1.81648 -0.419009,-1.22654 1.258061,-2.74609 1.258061,-2.74609 0,0 -1.862013,-1.66684 -1.00746,-2.82637 m 8.098763,5.99549 c -0.62951,1.18731 -4.20501,-0.28558 -4.20501,-0.28558 0,0 -3.687609,1.13547 -4.237661,-0.1597"
         style="fill:#666666;stroke:#000000;stroke-width:1;stroke-linecap:round;stroke-linejoin:round;stroke-miterlimit:4;stroke-dasharray:none;stroke-opacity:1"
         id="path5723" />
      <path
         sodipodi:nodetypes="cc"
         inkscape:connector-curvature="0"
         id="path5744"
         d="m 99.138505,173.54186 -1.77184,16.56647"
         style="fill:#000000;stroke:#000000;stroke-width:1;stroke-linecap:round;stroke-linejoin:round;stroke-miterlimit:4;stroke-dasharray:none;stroke-opacity:1" />
      <path
         d="m 100.87239,163.51772 a 0.95911455,0.92604166 0 0 1 -0.954217,0.92603 0.95911455,0.92604166 0 0 1 -0.963961,-0.91658 0.95911455,0.92604166 0 0 1 0.944376,-0.93539 0.95911455,0.92604166 0 0 1 0.973602,0.90703"
         sodipodi:open="true"
         sodipodi:end="6.262765"
         sodipodi:start="0"
         sodipodi:ry="0.92604166"
         sodipodi:rx="0.95911455"
         sodipodi:cy="163.51772"
         sodipodi:cx="99.913277"
         sodipodi:type="arc"
         id="path5778"
         style="opacity:1;fill:#000000;fill-opacity:1;fill-rule:evenodd;stroke:#000000;stroke-width:1;stroke-linecap:round;stroke-linejoin:round;stroke-miterlimit:4;stroke-dasharray:none;stroke-dashoffset:0;stroke-opacity:1;paint-order:stroke fill markers" />
    </g>
  </g>
</svg>
